# AST/ASF file generated using VICON BodyLanguage
# -----------------------------------------------
:version 1.10
:name VICON
:units
  mass 1.0
  length 0.45
  angle deg
:documentation
   .ast/.asf automatically generated from VICON data using
   VICON BodyBuilder and BodyLanguage model FoxedUp or BRILLIANT.MOD
:root
   order TX TY TZ RX RY RZ
   axis XYZ
   position 0 0 0  
   orientation 0 0 0 
:bonedata
  begin
     id 1 
     name lhipjoint
     direction 0.661853 -0.702389 0.261917 
     length 2.64193 
     axis 0 0 0  XYZ
  end
  begin
     id 2 
     name lfemur
     direction 0.34202 -0.939693 0  
     length 7.01722  
     axis 0 0 20  XYZ
    dof rx ry rz
    limits (-160.0 20.0)
           (-70.0 70.0)
           (-60.0 70.0)
  end
  begin
     id 3 
     name ltibia
     direction 0.34202 -0.939693 0   
     length 8.25008   
     axis 0 0 20   XYZ
    dof rx
    limits (-10.0 170.0)
  end
  begin
     id 4 
     name lfoot
     direction 0.0709916 -0.195048 0.978221   
     length 2.31941   
     axis -90 7.62852e-016 20   XYZ
    dof rx rz
    limits (-45.0 90.0)
           (-70.0 20.0)
  end
  begin
     id 5 
     name ltoes
     direction 1.53586e-011 -4.22017e-011 1   
     length 1.16486   
     axis -90 7.62852e-016 20   XYZ
    dof rx
    limits (-90.0 20.0)
  end
  begin
     id 6 
     name rhipjoint
     direction -0.638185 -0.721362 0.268992   
     length 2.57244  
     axis 0 0 0  XYZ 
  end
  begin
     id 7 
     name rfemur
     direction -0.34202 -0.939693 0   
     length 7.07017   
     axis 0 0 -20   XYZ
    dof rx ry rz
    limits (-160.0 20.0)
           (-70.0 70.0)
           (-70.0 60.0)
  end
  begin
     id 8 
     name rtibia
     direction -0.34202 -0.939693 0   
     length 8.20386   
     axis 0 0 -20   XYZ
    dof rx
    limits (-10.0 170.0)
 end
 begin
     id 9 
     name rfoot
     direction -0.0822429 -0.225961 0.970658   
     length 2.32215  
     axis -90 -7.62852e-016 -20   XYZ
    dof rx rz
    limits (-45.0 90.0)
           (-20.0 70.0)
  end
  begin
     id 10 
     name rtoes
     direction -1.53597e-011 -4.21689e-011 1   
     length 1.16333   
     axis -90 -7.62852e-016 -20   XYZ
    dof rx
    limits (-90.0 20.0)
  end
  begin
     id 11 
     name lowerback
     direction -0.0131557 0.998589 -0.0514484   
     length 2.14993   
     axis 0 0 0   XYZ
    dof rx ry rz
    limits (-20.0 45.0)
           (-30.0 30.0)
           (-30.0 30.0)
  end
  begin
     id 12 
     name upperback
     direction -0.000776481 0.999993 0.00352685   
     length 2.15301   
     axis 0 0 0   XYZ
    dof rx ry rz
    limits (-20.0 45.0)
           (-30.0 30.0)
           (-30.0 30.0)
  end
  begin
     id 13 
     name thorax
     direction 0.00438186 0.999609 0.0276143   
     length 2.15424   
     axis 0 0 0   XYZ
    dof rx ry rz
    limits (-20.0 45.0)
           (-30.0 30.0)
           (-30.0 30.0)
  end
  begin
     id 14 
     name lowerneck
     direction -0.0488006 0.998094 0.0377807   
     length 1.90481   
     axis 0 0 0   XYZ
    dof rx ry rz
    limits (-20.0 45.0)
           (-30.0 30.0)
           (-30.0 30.0)
  end
  begin
     id 15 
     name upperneck
     direction 0.0443769 0.990702 -0.12861   
     length 1.91305   
     axis 0 0 0   XYZ
    dof rx ry rz
    limits (-20.0 45.0)
           (-30.0 30.0)
           (-30.0 30.0)
  end
  begin
     id 16
     name head
     direction 0.0165599 0.998647 -0.0492982  
     length 1.92369  
     axis 0 0 0   XYZ
    dof rx ry rz
    limits (-20.0 45.0)
           (-30.0 30.0)
           (-30.0 30.0)
  end
  begin
     id 17 
     name lclavicle
     direction 0.911936 0.410197 -0.0105506  
     length 3.52622  
     axis 0 0 0   XYZ
    dof ry rz
    limits (-20.0 10.0)
           (0.0 20.0)
  end
  begin
     id 18 
     name lhumerus
     direction 1 -4.48974e-011 -2.48591e-028   
     length 5.47651   
     axis 180 -30 -90   XYZ
    dof rx ry rz
    limits (-60.0 90.0)
           (-90.0 90.0)
           (-90.0 90.0)
  end
  begin
     id 19
     name lradius
     direction 1 -4.48938e-011 -4.40099e-027   
     length 3.09058   
     axis 180 -30 -90   XYZ
    dof rx
    limits (-10.0 170.0)
  end
  begin
     id 20
     name lwrist
     direction 1 -4.49042e-011 -2.99852e-027   
     length 1.54529   
     axis 1.95339e-015 90 90   XYZ
    dof ry
    limits (-180.0 0.0)
 end
  begin
     id 21 
     name lhand
     direction 1 -4.48815e-011 -5.98193e-027   
     length 0.771611   
     axis 3.82337e-015 90 90   XYZ
    dof rx rz
    limits (-90.0 90.0)
           (-45.0 45.0)
  end
  begin
     id 22 
     name lfingers
     direction 1 -4.49034e-011 -1.1993e-026   
     length 0.622093   
     axis 7.64668e-015 90 90   XYZ
    dof rx
    limits (0.0 90.0)
  end
  begin
     id 23
     name lthumb
     direction 0.707107 -6.34867e-011 0.707107   
     length 0.893204   
     axis -90 45 -1.62303e-014   XYZ
    dof rx rz
    limits (-45.0 45.0)
           (-45.0 45.0)
  end
  begin
     id 24 
     name rclavicle
     direction -0.93442 0.355634 -0.0195692   
     length 3.62463  
     axis 0 0 0   XYZ 
    dof ry rz
    limits (-10.0 20.0)
           (-20.0 0.0)
  end
  begin
     id 25 
     name rhumerus
     direction -1 -4.48957e-011 -1.19147e-027  
     length 5.14182   
     axis 180 30 90   XYZ
    dof rx ry rz
    limits (-90.0 60.0)
           (-90.0 90.0)
           (-90.0 90.0)
  end
  begin
     id 26 
     name rradius
     direction -1 -4.48952e-011 -3.81062e-027   
     length 3.35565   
     axis 180 30 90   XYZ
    dof rx
    limits (-10.0 170.0)
  end
  begin
     id 27 
     name rwrist
     direction -1 -4.48973e-011 -2.99621e-027   
     length 1.67782   
     axis 1.95339e-015 -90 -90   XYZ
    dof ry
    limits (-180.0 0.0)
  end
  begin
     id 28
     name rhand
     direction -1 -4.48895e-011 -5.98727e-027   
     length 0.801042   
     axis 3.82337e-015 -90 -90   XYZ
    dof rx rz
    limits (-90.0 90.0)
           (-45.0 45.0)
  end
  begin
     id 29
     name rfingers
     direction -1 -4.49065e-011 -1.19972e-026   
     length 0.645821   
     axis 7.64668e-015 -90 -90   XYZ
    dof rx
    limits (0.0 90.0)
  end
  begin
     id 30
     name rthumb
     direction -0.707107 -6.34957e-011 0.707107   
     length 0.927273   
     axis -90 -45 1.62303e-014   XYZ
    dof rx rz
    limits (-45.0 45.0)
           (-45.0 45.0)
  end
:hierarchy
  begin
    root lhipjoint rhipjoint lowerback
    lhipjoint lfemur
    lfemur ltibia
    ltibia lfoot
    lfoot ltoes
    rhipjoint rfemur
    rfemur rtibia
    rtibia rfoot
    rfoot rtoes
    lowerback upperback
    upperback thorax
    thorax lowerneck lclavicle rclavicle
    lowerneck upperneck
    upperneck head
    lclavicle lhumerus
    lhumerus lradius
    lradius lwrist
    lwrist lhand lthumb
    lhand lfingers
    rclavicle rhumerus
    rhumerus rradius
    rradius rwrist
    rwrist rhand rthumb
    rhand rfingers
  end

#!OML:ASF E:\Style4\Style4.ASF
:FULLY-SPECIFIED
:DEGREES
375
root 0.192552 17.289 -1.01662 -3.2118 -14.5559 4.22325
lowerback 11.8913 1.10948 -2.87068
upperback 8.78573 1.14284 0.730783
thorax 2.47432 0.397179 2.26258
lowerneck 9.50452 -4.95964 -5.37187
upperneck 1.54869 -7.09 2.96334
head -0.816947 -3.60911 2.09027
rclavicle -1.33186e-014 -1.59028e-015
rhumerus 21.0932 11.3647 -85.7937
rradius 123.61
rwrist 25.6014
rhand 35.1075 -12.1178
rfingers 7.12502
rthumb 58.2308 -27.6303
lclavicle -1.33186e-014 -1.59028e-015
lhumerus 30.767 -25.235 87.0414
lradius 123.145
lwrist -21.1473
lhand 23.4595 45.7313
lfingers 7.12502
lthumb 47.7432 68.0631
rfemur -21.3514 3.24878 14.5962
rtibia 45.4303
rfoot -19.9968 -12.4589
rtoes -14.2587
lfemur -14.8427 11.2862 -23.0083
ltibia 41.44
lfoot -25.6259 15.4599
ltoes -11.0055
376
root 0.190627 17.258 -1.01452 -3.45108 -14.6687 4.40025
lowerback 11.9565 1.10498 -3.01651
upperback 9.01217 1.12164 0.681989
thorax 2.68141 0.373797 2.29702
lowerneck 9.83288 -4.91346 -5.41251
upperneck 1.23457 -7.04562 3.01955
head -0.973797 -3.58645 2.13632
rclavicle 2.52457e-014 -7.15625e-015
rhumerus 20.5353 11.6095 -85.9162
rradius 124.204
rwrist 24.8236
rhand 36.446 -12.7582
rfingers 7.12502
rthumb 59.3896 -27.1638
lclavicle 2.52457e-014 -7.15625e-015
lhumerus 29.9169 -25.6336 87.2714
lradius 123.899
lwrist -20.7431
lhand 23.8505 46.1504
lfingers 7.12502
lthumb 48.1037 68.3147
rfemur -21.507 3.25995 14.4307
rtibia 46.0497
rfoot -20.231 -12.4165
rtoes -14.3746
lfemur -14.9161 11.6125 -23.1177
ltibia 42.0137
lfoot -25.8233 15.2764
ltoes -10.7648
377
root 0.18812 17.225 -1.01241 -3.69763 -14.764 4.49789
lowerback 12.0829 1.07787 -3.12958
upperback 9.23978 1.0708 0.681175
thorax 2.85903 0.33553 2.36505
lowerneck 10.1179 -4.85294 -5.48626
upperneck 0.962067 -6.98515 3.03732
head -1.11151 -3.55515 2.17259
rclavicle -1.15295e-014 1.03368e-014
rhumerus 19.8675 11.9577 -86.0711
rradius 124.654
rwrist 24.5568
rhand 37.1536 -12.5802
rfingers 7.12502
rthumb 59.9967 -26.3639
lclavicle -1.15295e-014 1.03368e-014
lhumerus 29.1748 -25.865 87.5106
lradius 124.713
lwrist -20.1981
lhand 24.4936 46.5412
lfingers 7.12502
lthumb 48.6959 68.4227
rfemur -21.5984 3.28661 14.3549
rtibia 46.6459
rfoot -20.5457 -12.3914
rtoes -14.2666
lfemur -14.9498 11.9011 -23.1299
ltibia 42.5755
lfoot -26.0151 15.0986
ltoes -10.8833
378
root 0.186307 17.1939 -1.01125 -3.9071 -14.8415 4.46795
lowerback 12.2662 1.03627 -3.16
upperback 9.45475 1.00525 0.724976
thorax 2.99429 0.293019 2.43384
lowerneck 10.2866 -4.79371 -5.47549
upperneck 0.777029 -6.91359 2.98514
head -1.20649 -3.51685 2.16368
rclavicle -1.07344e-014 1.27222e-014
rhumerus 19.1515 12.3899 -86.2077
rradius 125.19
rwrist 24.1913
rhand 37.9774 -12.624
rfingers 7.12502
rthumb 60.6984 -25.6496
lclavicle -1.07344e-014 1.27222e-014
lhumerus 28.4137 -26.0395 87.7713
lradius 125.63
lwrist -19.604
lhand 25.078 47.0128
lfingers 7.12502
lthumb 49.2328 68.6293
rfemur -21.6795 3.36656 14.4238
rtibia 47.2182
rfoot -20.8562 -12.4123
rtoes -14.1684
lfemur -14.9836 12.1733 -22.9973
ltibia 43.1099
lfoot -26.2267 14.8818
ltoes -11.0838
379
root 0.183729 17.1642 -1.01045 -4.10671 -14.9217 4.53954
lowerback 12.4381 0.986273 -3.3651
upperback 9.65158 0.912972 0.791582
thorax 3.11794 0.22762 2.62751
lowerneck 10.3509 -4.7085 -5.62194
upperneck 0.655799 -6.82065 2.97289
head -1.25758 -3.46916 2.18873
rclavicle 2.78299e-015 7.95139e-016
rhumerus 18.4115 12.9663 -86.266
rradius 125.775
rwrist 23.6419
rhand 38.644 -12.8376
rfingers 7.12502
rthumb 61.2619 -25.2211
lclavicle 2.78299e-015 7.95139e-016
lhumerus 27.5369 -26.1544 88.1462
lradius 126.64
lwrist -18.8589
lhand 25.7592 47.7205
lfingers 7.12502
lthumb 49.8572 69.0179
rfemur -21.7971 3.48562 14.3869
rtibia 47.7498
rfoot -21.0765 -12.4783
rtoes -14.1653
lfemur -15.0361 12.3959 -22.9796
ltibia 43.6192
lfoot -26.5291 14.5534
ltoes -10.4571
